<svg viewBox="0 0 584 140" fill="none">
    <path fill-rule="evenodd" clip-rule="evenodd" d="M140 58.176V5.741C140 2.572 137.428 0 134.259 0H94.5543C91.3863 0 88.2963 2.52 87.6593 5.623L61.2313 134.377C60.5943 137.48 62.6492 140 65.8182 140H134.259C137.428 140 140 137.428 140 134.259V76.839L94.2271 107.143C93.7921 107.431 93.4381 107.242 93.4381 106.72V97.401C93.4381 96.879 93.7893 96.218 94.2223 95.926L135.759 67.839C136.191 67.547 136.192 67.071 135.76 66.778L94.2213 38.546C93.7893 38.253 93.4381 37.59 93.4381 37.068V28.049C93.4381 27.527 93.7912 27.338 94.2252 27.628L140 58.176Z" fill="#4A86E8" />
    <path fill-rule="evenodd" clip-rule="evenodd" d="M11.6121 9.773H22.54C23.019 9.773 23.4092 10.162 23.4092 10.642V15.237C23.4092 15.717 23.019 16.106 22.54 16.106H11.6121C11.1321 16.106 10.7432 15.717 10.7432 15.237V10.642C10.7432 10.162 11.1321 9.773 11.6121 9.773ZM0 79.454V134.259C0 137.428 2.57199 140 5.73999 140H45.446C48.614 140 51.7041 137.48 52.3411 134.377L78.7681 5.623C79.4051 2.52 77.3501 0 74.1821 0H5.73999C2.57199 0 0 2.572 0 5.741V60.792L45.7751 30.244C46.2091 29.954 46.562 30.143 46.562 30.665V39.684C46.562 40.206 46.2111 40.868 45.7791 41.162L4.23999 69.394C3.80799 69.687 3.80797 70.163 4.24097 70.455L45.7781 98.541C46.2101 98.834 46.562 99.495 46.562 100.017V109.335C46.562 109.857 46.2082 110.047 45.7732 109.759L0 79.454ZM11.9041 21.082H32.199C32.84 21.082 33.3601 21.602 33.3601 22.243V26.254C33.3601 26.894 32.84 27.414 32.199 27.414H11.9041C11.2631 27.414 10.7432 26.894 10.7432 26.254V22.243C10.7432 21.602 11.2631 21.082 11.9041 21.082Z" fill="#0015AD" />
    <path fill-rule="evenodd" clip-rule="evenodd" d="M225.559 49.571C222.802 46.8797 219.619 44.7793 216.009 43.27C212.399 41.7607 208.658 41.006 204.785 41.006C199.468 41.006 194.595 42.2857 190.165 44.845C185.734 47.405 182.223 50.9003 179.631 55.331C177.038 59.761 175.742 64.6013 175.742 69.852C175.742 75.1033 177.038 79.9277 179.631 84.325C182.223 88.7223 185.734 92.2173 190.165 94.81C194.595 97.4027 199.468 98.699 204.785 98.699C208.592 98.699 212.3 97.9607 215.91 96.484C219.52 95.0073 222.736 92.9563 225.559 90.331L229.694 94.761C226.281 97.9117 222.375 100.406 217.978 102.243C213.581 104.081 209.085 105 204.49 105C197.992 105 192.019 103.425 186.571 100.274C181.124 97.124 176.808 92.8577 173.625 87.475C170.442 82.093 168.85 76.2187 168.85 69.852C168.85 63.4853 170.458 57.644 173.674 52.328C176.89 47.0113 181.238 42.7943 186.719 39.677C192.2 36.559 198.189 35 204.687 35C209.347 35 213.843 35.8697 218.175 37.609C222.507 39.3483 226.314 41.7603 229.595 44.845L225.559 49.571ZM273.801 35C280.364 35 286.387 36.559 291.867 39.677C297.348 42.7943 301.696 47.0113 304.912 52.328C308.128 57.644 309.736 63.4853 309.736 69.852C309.736 76.2187 308.128 82.093 304.912 87.475C301.696 92.8577 297.348 97.124 291.867 100.274C286.387 103.425 280.364 105 273.801 105C267.237 105 261.215 103.425 255.735 100.274C250.254 97.124 245.906 92.8577 242.69 87.475C239.474 82.093 237.865 76.2187 237.865 69.852C237.865 63.4853 239.474 57.644 242.69 52.328C245.906 47.0113 250.254 42.7943 255.735 39.677C261.215 36.559 267.237 35 273.801 35ZM273.899 41.104C268.649 41.104 263.791 42.384 259.328 44.944C254.865 47.5033 251.32 50.982 248.695 55.38C246.07 59.7773 244.757 64.6013 244.757 69.852C244.757 75.1033 246.07 79.9603 248.695 84.423C251.32 88.8863 254.865 92.4143 259.328 95.007C263.791 97.5997 268.649 98.896 273.899 98.896C279.085 98.896 283.892 97.5997 288.322 95.007C292.753 92.4143 296.281 88.8863 298.906 84.423C301.531 79.9603 302.844 75.1033 302.844 69.852C302.844 64.6013 301.531 59.7773 298.906 55.38C296.281 50.982 292.753 47.5033 288.322 44.944C283.892 42.384 279.085 41.104 273.899 41.104ZM324.701 105V35.591H331.494V98.896H361.818V105H324.701ZM375.207 105V35.591H382V98.896H412.324V105H375.207Z" fill="#4A86E8" />
    <path fill-rule="evenodd" clip-rule="evenodd" d="M438.906 104.754V35.246H423.351V104.754H438.906ZM454.166 35.246V104.754H482.816C504.574 104.754 519.638 89.986 519.638 69.705C519.638 49.325 504.771 35.246 483.407 35.246H454.166ZM469.722 48.34H483.112C494.926 48.34 503.787 57.103 503.787 69.803C503.787 82.405 495.32 91.069 483.801 91.069H469.722V48.34ZM582.352 48.143V35.246H529.877V104.754H583.435V91.266H545.432V76.006H578.709V63.108H545.432V48.143H582.352Z" fill="#0015AD" />
</svg>
